<svg xmlns="http://www.w3.org/2000/svg" viewBox="0 0 1000 500" width="100%" height="100%">
  <style>
    .wall { stroke: #333333; stroke-width: 3.5; fill: #f9f9f9; stroke-linejoin: round; }
    .partition { stroke: #444444; stroke-width: 2.5; fill: none; stroke-linejoin: round; }
    .pool-table { stroke: #333333; stroke-width: 2; fill: #ffffff; }
    .pool-cushion { stroke: #666666; stroke-width: 1.2; fill: none; }
    .pocket { fill: #444444; }
    .furniture { stroke: #777777; stroke-width: 1.5; fill: none; }
    .door { stroke: #888888; stroke-width: 1.2; fill: none; stroke-dasharray: 3,3; }
    .door-line { stroke: #666666; stroke-width: 1.5; fill: none; }
  </style>
  
  <path class="wall" d="M 90 120 L 90 40 L 400 40 L 400 30 L 420 30 L 420 40 L 650 40 L 650 30 L 670 30 L 670 40 L 910 40 L 910 120 L 890 120 L 890 150 L 910 150 L 910 410 L 890 410 L 890 440 L 910 440 L 910 470 L 400 470 L 400 460 L 380 460 L 380 470 L 90 470 L 90 350 L 110 350 L 110 120 Z" />
  
  <defs>
    <g id="billiard-table">
      <rect x="0" y="0" width="82" height="145" rx="4" class="pool-table" />
      <rect x="6" y="6" width="70" height="133" rx="2" class="pool-cushion" />
      <circle cx="6" cy="6" r="3.5" class="pocket" />
      <circle cx="76" cy="6" r="3.5" class="pocket" />
      <circle cx="6" cy="72.5" r="3" class="pocket" />
      <circle cx="76" cy="72.5" r="3" class="pocket" />
      <circle cx="6" cy="139" r="3.5" class="pocket" />
      <circle cx="76" cy="139" r="3.5" class="pocket" />
    </g>
    <g id="single-sofa">
      <rect x="0" y="0" width="26" height="24" class="furniture" />
      <path d="M 3 3 L 23 3 L 23 21 L 3 21 Z" class="furniture" stroke-dasharray="1,1" />
    </g>
  </defs>

  <use href="#billiard-table" x="175" y="145" /> <use href="#billiard-table" x="315" y="145" /> <use href="#billiard-table" x="455" y="90" />  <use href="#billiard-table" x="595" y="90" />  <use href="#billiard-table" x="735" y="90" />  <use href="#billiard-table" x="595" y="295" /> <use href="#billiard-table" x="735" y="295" /> <path class="partition" d="M 90 350 L 240 350 L 240 470" />
  <path class="partition" d="M 240 370 L 380 370 L 380 470" />
  <path class="partition" d="M 160 350 L 160 420 L 90 420" />

  <use href="#single-sofa" x="165" y="50" />
  <use href="#single-sofa" x="191" y="50" />
  <use href="#single-sofa" x="217" y="50" />
  
  <path d="M 445 365 L 535 365 L 535 410" class="furniture" stroke-width="2" />
  <rect x="485" y="380" width="16" height="16" class="furniture" rx="2" /> <path d="M 255 440 L 355 440 L 355 395" class="furniture" stroke-width="2" />
  <rect x="285" y="405" width="40" height="20" class="furniture" rx="3" /> <circle cx="125" cy="445" r="8" class="furniture" /> 
  <rect x="112" y="455" width="26" height="10" class="furniture" rx="1" />
  <ellipse cx="200" cy="360" rx="12" ry="7" class="furniture" /> 

  <path d="M 90 90 A 30 30 0 0 1 120 120" class="door" />
  <line x1="120" y1="120" x2="120" y2="90" class="door-line" />
  
  <path d="M 130 350 A 30 30 0 0 1 160 320" class="door" />
  <line x1="160" y1="350" x2="130" y2="350" class="door-line" />
  
  <path d="M 380 440 A 30 30 0 0 1 350 470" class="door" />
  <line x1="380" y1="440" x2="380" y2="470" class="door-line" />
</svg>
