<svg width="59" height="60" viewBox="0 0 59 60" fill="none" xmlns="http://www.w3.org/2000/svg">
<g clip-path="url(#clip0_6_64)">
<circle cx="30" cy="30" r="15" fill="white"/>
<path d="M53.5294 41.062C50.9701 46.5056 46.6026 50.8935 41.1708 53.4779C35.7391 56.0624 29.5793 56.6834 23.7409 55.2354C17.9026 53.7873 12.747 50.3597 9.15252 45.5365C5.55807 40.7133 3.74719 34.793 4.02843 28.7844C4.30968 22.7757 6.66564 17.0505 10.6949 12.5841C14.7242 8.11778 20.1774 5.1867 26.1255 4.29031C32.0735 3.39392 38.1484 4.58767 43.315 7.66817C48.4816 10.7487 52.4202 15.5253 54.4598 21.1842L44.0132 24.9494C42.8447 21.7073 40.5882 18.9708 37.6283 17.2059C34.6683 15.4411 31.1879 14.7572 27.7803 15.2707C24.3726 15.7843 21.2483 17.4635 18.94 20.0223C16.6316 22.5811 15.2818 25.8611 15.1207 29.3036C14.9596 32.746 15.997 36.1377 18.0563 38.901C20.1156 41.6642 23.0693 43.6279 26.4141 44.4575C29.759 45.2872 33.288 44.9313 36.3998 43.4507C39.5117 41.9701 42.014 39.4562 43.4802 36.3375L53.5294 41.062Z" fill="#161616"/>
<path d="M57.1493 42.7638C54.1963 49.045 49.1568 54.1079 42.8894 57.0899C36.622 60.0719 29.5145 60.7886 22.778 59.1177C16.0414 57.4469 10.0927 53.4919 5.94521 47.9267C1.79777 42.3615 -0.291703 35.5304 0.0328087 28.5973C0.35732 21.6643 3.07574 15.0582 7.72488 9.90475C12.374 4.75128 18.6662 1.36927 25.5294 0.334976C32.3926 -0.699323 39.402 0.678083 45.3635 4.2325C51.3249 7.78692 55.8695 13.2984 58.2228 19.8279L54.344 21.2259C52.3141 15.5938 48.3941 10.8398 43.252 7.77388C38.1098 4.70797 32.0637 3.51986 26.1438 4.41201C20.2239 5.30416 14.7965 8.22136 10.7863 12.6666C6.7761 17.1118 4.43129 22.8099 4.15138 28.7901C3.87146 34.7703 5.67377 40.6626 9.2512 45.4629C12.8286 50.2633 17.9598 53.6747 23.7705 55.1159C29.5812 56.5571 35.7119 55.939 41.1179 53.3668C46.524 50.7946 50.8709 46.4275 53.418 41.0096L57.1493 42.7638Z" fill="#0066FF"/>
<path d="M29.5 38C28.4569 38 27.5165 37.7897 26.6789 37.369C25.857 36.9333 25.2011 36.3474 24.7112 35.6113C24.2371 34.8751 24 34.0488 24 33.1324C24 32.3962 24.2134 31.7052 24.6401 31.0592C25.0826 30.4131 25.6279 29.8723 26.2759 29.4366C25.8175 29.046 25.4303 28.5878 25.1142 28.062C24.8139 27.5211 24.6638 26.9653 24.6638 26.3944C24.6638 25.5681 24.8772 24.8244 25.3039 24.1634C25.7464 23.5023 26.3312 22.9765 27.0582 22.5859C27.801 22.1953 28.6149 22 29.5 22C30.4167 22 31.2385 22.1953 31.9655 22.5859C32.7083 22.9765 33.2931 23.5099 33.7198 24.1859C34.1466 24.8469 34.3599 25.5831 34.3599 26.3944C34.3599 26.9653 34.2098 27.5211 33.9095 28.062C33.625 28.5878 33.2299 29.046 32.7241 29.4366C33.4195 29.8723 33.9727 30.4131 34.3836 31.0592C34.7945 31.7052 35 32.3962 35 33.1324C35 34.0939 34.7471 34.9427 34.2414 35.6789C33.7356 36.4 33.0639 36.9709 32.2263 37.3915C31.3886 37.7972 30.4799 38 29.5 38ZM29.5 28.4225C30.1954 28.4225 30.7486 28.2423 31.1595 27.8817C31.5862 27.5211 31.7996 27.0254 31.7996 26.3944C31.7996 25.7484 31.5862 25.2526 31.1595 24.907C30.7486 24.5465 30.1954 24.3662 29.5 24.3662C28.8046 24.3662 28.2514 24.5465 27.8405 24.907C27.4296 25.2676 27.2241 25.7634 27.2241 26.3944C27.2241 27.0404 27.4296 27.5437 27.8405 27.9042C28.2514 28.2498 28.8046 28.4225 29.5 28.4225ZM29.5 35.6789C30.3693 35.6789 31.0726 35.4535 31.6099 35.0028C32.1631 34.5521 32.4397 33.9286 32.4397 33.1324C32.4397 32.3812 32.1631 31.7953 31.6099 31.3746C31.0726 30.954 30.3693 30.7437 29.5 30.7437C28.6149 30.7437 27.9037 30.9615 27.3664 31.3972C26.8448 31.8178 26.5841 32.3962 26.5841 33.1324C26.5841 33.9136 26.8448 34.5371 27.3664 35.0028C27.9037 35.4535 28.6149 35.6789 29.5 35.6789Z" fill="#161616"/>
</g>
<defs>
<clipPath id="clip0_6_64">
<rect width="59" height="60" fill="white"/>
</clipPath>
</defs>
</svg>
