<svg width="126" height="60" viewBox="0 0 126 60" fill="none" xmlns="http://www.w3.org/2000/svg">
<g clip-path="url(#clip0_6_56)">
<circle cx="30" cy="30" r="15" fill="white"/>
<path d="M53.5294 41.062C50.9701 46.5056 46.6026 50.8935 41.1708 53.4779C35.7391 56.0624 29.5793 56.6834 23.7409 55.2354C17.9026 53.7873 12.747 50.3597 9.15252 45.5365C5.55807 40.7133 3.74719 34.793 4.02843 28.7844C4.30968 22.7757 6.66564 17.0505 10.6949 12.5841C14.7242 8.11778 20.1774 5.1867 26.1255 4.29031C32.0735 3.39392 38.1484 4.58767 43.315 7.66817C48.4816 10.7487 52.4202 15.5253 54.4598 21.1842L44.0132 24.9494C42.8447 21.7073 40.5882 18.9708 37.6283 17.2059C34.6683 15.4411 31.1879 14.7572 27.7803 15.2707C24.3726 15.7843 21.2483 17.4635 18.94 20.0223C16.6316 22.5811 15.2818 25.8611 15.1207 29.3036C14.9596 32.746 15.997 36.1377 18.0563 38.901C20.1156 41.6642 23.0693 43.6279 26.4141 44.4575C29.759 45.2872 33.288 44.9313 36.3998 43.4507C39.5117 41.9701 42.014 39.4562 43.4802 36.3375L53.5294 41.062Z" fill="#161616"/>
<path d="M57.1493 42.7638C54.1963 49.045 49.1568 54.1079 42.8894 57.0899C36.622 60.0719 29.5145 60.7886 22.778 59.1177C16.0414 57.4469 10.0927 53.4919 5.94521 47.9267C1.79777 42.3615 -0.291703 35.5304 0.0328087 28.5973C0.35732 21.6643 3.07574 15.0582 7.72488 9.90475C12.374 4.75128 18.6662 1.36927 25.5294 0.334976C32.3926 -0.699323 39.402 0.678083 45.3635 4.2325C51.3249 7.78692 55.8695 13.2984 58.2228 19.8279L54.344 21.2259C52.3141 15.5938 48.3941 10.8398 43.252 7.77388C38.1098 4.70797 32.0637 3.51986 26.1438 4.41201C20.2239 5.30416 14.7965 8.22136 10.7863 12.6666C6.7761 17.1118 4.43129 22.8099 4.15138 28.7901C3.87146 34.7703 5.67377 40.6626 9.2512 45.4629C12.8286 50.2633 17.9598 53.6747 23.7705 55.1159C29.5812 56.5571 35.7119 55.939 41.1179 53.3668C46.524 50.7946 50.8709 46.4275 53.418 41.0096L57.1493 42.7638Z" fill="#0066FF"/>
<path d="M29.5 38C28.4569 38 27.5165 37.7897 26.6789 37.369C25.857 36.9333 25.2011 36.3474 24.7112 35.6113C24.2371 34.8751 24 34.0488 24 33.1324C24 32.3962 24.2134 31.7052 24.6401 31.0592C25.0826 30.4131 25.6279 29.8723 26.2759 29.4366C25.8175 29.046 25.4303 28.5878 25.1142 28.062C24.8139 27.5211 24.6638 26.9653 24.6638 26.3944C24.6638 25.5681 24.8772 24.8244 25.3039 24.1634C25.7464 23.5023 26.3312 22.9765 27.0582 22.5859C27.801 22.1953 28.6149 22 29.5 22C30.4167 22 31.2385 22.1953 31.9655 22.5859C32.7083 22.9765 33.2931 23.5099 33.7198 24.1859C34.1466 24.8469 34.3599 25.5831 34.3599 26.3944C34.3599 26.9653 34.2098 27.5211 33.9095 28.062C33.625 28.5878 33.2299 29.046 32.7241 29.4366C33.4195 29.8723 33.9727 30.4131 34.3836 31.0592C34.7945 31.7052 35 32.3962 35 33.1324C35 34.0939 34.7471 34.9427 34.2414 35.6789C33.7356 36.4 33.0639 36.9709 32.2263 37.3915C31.3886 37.7972 30.4799 38 29.5 38ZM29.5 28.4225C30.1954 28.4225 30.7486 28.2423 31.1595 27.8817C31.5862 27.5211 31.7996 27.0254 31.7996 26.3944C31.7996 25.7484 31.5862 25.2526 31.1595 24.907C30.7486 24.5465 30.1954 24.3662 29.5 24.3662C28.8046 24.3662 28.2514 24.5465 27.8405 24.907C27.4296 25.2676 27.2241 25.7634 27.2241 26.3944C27.2241 27.0404 27.4296 27.5437 27.8405 27.9042C28.2514 28.2498 28.8046 28.4225 29.5 28.4225ZM29.5 35.6789C30.3693 35.6789 31.0726 35.4535 31.6099 35.0028C32.1631 34.5521 32.4397 33.9286 32.4397 33.1324C32.4397 32.3812 32.1631 31.7953 31.6099 31.3746C31.0726 30.954 30.3693 30.7437 29.5 30.7437C28.6149 30.7437 27.9037 30.9615 27.3664 31.3972C26.8448 31.8178 26.5841 32.3962 26.5841 33.1324C26.5841 33.9136 26.8448 34.5371 27.3664 35.0028C27.9037 35.4535 28.6149 35.6789 29.5 35.6789Z" fill="#161616"/>
<path d="M73.4325 54C72.3153 54 71.33 53.7681 70.4766 53.3043C69.6387 52.8256 68.9793 52.1674 68.4983 51.3296C68.0328 50.4769 67.8 49.4895 67.8 48.3675C67.8 47.051 68.0406 45.9514 68.5216 45.0687C69.0026 44.1711 69.662 43.4979 70.4999 43.0491C71.3533 42.6003 72.3309 42.3759 73.4325 42.3759C74.5342 42.3759 75.504 42.6003 76.3419 43.0491C77.1953 43.4979 77.8625 44.1711 78.3435 45.0687C78.8245 45.9514 79.065 47.051 79.065 48.3675C79.065 49.4895 78.8245 50.4769 78.3435 51.3296C77.8625 52.1674 77.1953 52.8256 76.3419 53.3043C75.504 53.7681 74.5342 54 73.4325 54ZM73.4325 51.7111C74.1308 51.7111 74.7204 51.554 75.2014 51.2398C75.6824 50.9257 76.0471 50.5143 76.2953 50.0056C76.5591 49.497 76.691 48.9509 76.691 48.3675C76.691 47.3202 76.4117 46.4451 75.8531 45.7419C75.2945 45.0238 74.4876 44.6648 73.4325 44.6648C72.3929 44.6648 71.5861 45.0164 71.012 45.7195C70.4534 46.4226 70.1741 47.3053 70.1741 48.3675C70.1741 48.9659 70.2982 49.5194 70.5465 50.0281C70.8102 50.5367 71.1826 50.9481 71.6636 51.2623C72.1447 51.5615 72.7343 51.7111 73.4325 51.7111Z" fill="white"/>
<path d="M91.5508 53.7083H89.0837V47.1108C89.0837 46.4675 88.944 45.9738 88.6647 45.6297C88.4009 45.2856 88.0673 45.0463 87.6639 44.9116C87.276 44.777 86.8881 44.7097 86.5002 44.7097C86.1278 44.7097 85.7166 44.777 85.2666 44.9116C84.8166 45.0463 84.4287 45.2931 84.1029 45.6522C83.7926 45.9963 83.6374 46.4825 83.6374 47.1108V53.7083H81.1703V42.4881H83.6374V43.4306C83.9322 43.0416 84.3667 42.7648 84.9408 42.6003C85.5304 42.4357 86.1045 42.3534 86.6631 42.3534C87.6251 42.3534 88.4708 42.5479 89.2 42.9369C89.9448 43.3259 90.5189 43.8794 90.9224 44.5975C91.3413 45.3006 91.5508 46.1384 91.5508 47.1108V53.7083Z" fill="white"/>
<path d="M95.2313 48.7041V44.7097H93.4159V42.4881H95.2313V38H97.6751V42.4881H99.5604V44.7097H97.6751V48.7041C97.6751 49.3773 97.7139 49.9009 97.7915 50.2749C97.8846 50.6489 98.0087 50.9107 98.1639 51.0603C98.3346 51.2099 98.5285 51.2997 98.7458 51.3296C98.9785 51.3595 99.2268 51.382 99.4906 51.3969H99.956V53.7532H99.5604C98.738 53.7532 98.0475 53.6933 97.4889 53.5736C96.9459 53.454 96.5036 53.2221 96.1623 52.878C95.8364 52.5189 95.5959 52.0103 95.4408 51.352C95.3011 50.6788 95.2313 49.7962 95.2313 48.7041Z" fill="white"/>
<path d="M102.127 53.7083V42.533H104.594V43.4306C105.168 42.8471 105.858 42.5404 106.665 42.5105C107.488 42.4806 108.426 42.6227 109.481 42.9369L108.294 45.0014C107.674 44.792 107.076 44.7396 106.502 44.8443C105.928 44.949 105.463 45.151 105.106 45.4502C104.749 45.7494 104.578 46.0935 104.594 46.4825V53.7083H102.127Z" fill="white"/>
<path d="M115.595 54C114.478 54 113.493 53.7681 112.639 53.3043C111.801 52.8256 111.142 52.1674 110.661 51.3296C110.195 50.4769 109.963 49.4895 109.963 48.3675C109.963 47.051 110.203 45.9514 110.684 45.0687C111.165 44.1711 111.825 43.4979 112.663 43.0491C113.516 42.6003 114.494 42.3759 115.595 42.3759C116.697 42.3759 117.667 42.6003 118.505 43.0491C119.358 43.4979 120.025 44.1711 120.506 45.0687C120.987 45.9514 121.228 47.051 121.228 48.3675C121.228 49.4895 120.987 50.4769 120.506 51.3296C120.025 52.1674 119.358 52.8256 118.505 53.3043C117.667 53.7681 116.697 54 115.595 54ZM115.595 51.7111C116.293 51.7111 116.883 51.554 117.364 51.2398C117.845 50.9257 118.21 50.5143 118.458 50.0056C118.722 49.497 118.854 48.9509 118.854 48.3675C118.854 47.3202 118.574 46.4451 118.016 45.7419C117.457 45.0238 116.65 44.6648 115.595 44.6648C114.556 44.6648 113.749 45.0164 113.175 45.7195C112.616 46.4226 112.337 47.3053 112.337 48.3675C112.337 48.9659 112.461 49.5194 112.709 50.0281C112.973 50.5367 113.345 50.9481 113.826 51.2623C114.307 51.5615 114.897 51.7111 115.595 51.7111Z" fill="white"/>
<path d="M125.8 53.7083H123.333V38H125.8V53.7083Z" fill="white"/>
<path d="M78.3519 34.7885H75.8204V33.7867C75.5996 34.1906 75.2132 34.4934 74.6611 34.6953C74.1091 34.8973 73.494 34.9982 72.8157 34.9982C72.1533 35.0137 71.4987 34.9283 70.852 34.7419C70.2211 34.5556 69.6928 34.2838 69.2669 33.9265C68.289 33.0568 67.8 31.7832 67.8 30.1057V23.1398H70.3315V30.1057C70.3315 30.991 70.5918 31.6356 71.1123 32.0394C71.6486 32.4432 72.3189 32.6452 73.1233 32.6452C73.5334 32.6452 73.9435 32.5597 74.3536 32.3889C74.7794 32.2025 75.1264 31.9229 75.3945 31.5502C75.6785 31.1774 75.8204 30.6959 75.8204 30.1057V23.1398H78.3519V34.7885Z" fill="#0066FF"/>
<path d="M91.7696 29.8728H83.1815C83.2288 30.6804 83.4969 31.3094 83.9859 31.7599C84.4748 32.1947 85.0821 32.4588 85.8076 32.552C86.5489 32.6452 87.3139 32.583 88.1025 32.3656C88.9069 32.1326 89.6324 31.7443 90.2791 31.2007L91.6513 33.0878C90.8312 33.7712 89.9794 34.2605 89.0962 34.5556C88.2287 34.8507 87.3612 34.9982 86.4937 34.9982C84.5064 35.0137 83.0001 34.4701 81.9749 33.3674C80.9654 32.2491 80.4607 30.6804 80.4607 28.6613C80.4607 26.9373 80.9654 25.5627 81.9749 24.5376C83.0001 23.5125 84.4117 23 86.2098 23C88.765 23.0155 90.4605 24.0018 91.2964 25.9588C91.533 26.5024 91.6829 27.0926 91.746 27.7294C91.8091 28.3662 91.8169 29.0806 91.7696 29.8728ZM86.4227 25.3297C85.4133 25.3297 84.6168 25.5938 84.0332 26.1219C83.4654 26.6344 83.1815 27.279 83.1815 28.0556H89.5694C89.5694 27.2945 89.2933 26.6499 88.7413 26.1219C88.205 25.5938 87.4322 25.3297 86.4227 25.3297Z" fill="#0066FF"/>
</g>
<defs>
<clipPath id="clip0_6_56">
<rect width="126" height="60" fill="white"/>
</clipPath>
</defs>
</svg>
